<svg width="20" height="20" viewBox="0 0 20 20" fill="none" xmlns="http://www.w3.org/2000/svg">
<path d="M1 0C0.447715 0 0 0.447715 0 1V19C0 19.5523 0.447715 20 1 20H19C19.5523 20 20 19.5523 20 19V1C20 0.447715 19.5523 0 19 0H1ZM16.2477 6.7957C16.0934 6.92745 16 7.11812 16 7.32103V7.375C16 11.5 12.875 16.125 7.25 16.125C5.7681 16.125 4.37583 15.7665 3.14909 15.1253C2.95545 15.0241 3.0315 14.75 3.25 14.75C3.79819 14.75 4.31299 14.6832 4.8005 14.5558C5.63034 14.3388 5.36607 12.9697 4.81734 12.3104C4.69317 12.1612 4.58323 11.9992 4.48938 11.8262C4.34084 11.5524 4.5635 11.25 4.875 11.25C5.12106 11.25 5.11844 10.995 4.89602 10.8897C4.00934 10.4702 3.32851 9.61916 3.16344 8.60237C3.13061 8.40016 3.34304 8.26036 3.53479 8.33249C3.78098 8.4251 3.93666 8.07895 3.77205 7.87379C3.35356 7.35221 3.125 6.67611 3.125 6C3.125 5.93151 3.1265 5.86451 3.1295 5.79902C3.1605 5.12292 3.9358 5.04031 4.445 5.48615C5.72349 6.60555 7.36923 7.32508 9.11594 7.55597C9.52709 7.61032 9.75 7.28973 9.75 6.875C9.75 5.125 11.125 3.75 12.875 3.75C13.6351 3.75 14.3009 4.03299 14.8723 4.51702C15.0369 4.65644 15.2519 4.73164 15.4622 4.68355C15.8248 4.60063 16.1602 4.48553 16.4846 4.33823C16.7112 4.23536 16.9514 4.44384 16.8242 4.6577C16.7648 4.75754 16.7005 4.85364 16.6319 4.94556C16.4922 5.13268 16.7254 5.53752 16.9482 5.46761C17.139 5.40775 17.2967 5.6227 17.1831 5.78726C16.9171 6.17273 16.6052 6.49043 16.2477 6.7957Z" fill="#D3A265"/>
</svg>
